<?xml version="1.0" standalone="no"?><!DOCTYPE svg PUBLIC "-//W3C//DTD SVG 1.1//EN" "http://www.w3.org/Graphics/SVG/1.1/DTD/svg11.dtd"><svg class="icon" width="200px" height="200.00px" viewBox="0 0 1024 1024" version="1.1" xmlns="http://www.w3.org/2000/svg"><path fill="#333333" d="M805.33 159.92H511.98c-16.21 0-29.33 13.13-29.33 29.33s13.12 29.33 29.33 29.33h293.35v469.47H260.11l67.26-67.26c11.46-11.46 11.46-30.02 0-41.48-11.46-11.46-30.02-11.46-41.48 0L168.58 696.64c-2.71 2.71-4.86 5.96-6.35 9.55a29.296 29.296 0 0 0 0 22.41c1.49 3.6 3.64 6.84 6.35 9.55L285.9 855.47c5.73 5.73 13.24 8.59 20.74 8.59 7.51 0 15.01-2.86 20.74-8.59 11.46-11.46 11.46-30.02 0-41.48l-67.26-67.26h545.22c32.34 0 58.67-26.31 58.67-58.67V218.59c-0.01-32.35-26.34-58.67-58.68-58.67z" /></svg>