<?xml version="1.0" standalone="no"?><!DOCTYPE svg PUBLIC "-//W3C//DTD SVG 1.1//EN" "http://www.w3.org/Graphics/SVG/1.1/DTD/svg11.dtd"><svg class="icon" width="200px" height="200.00px" viewBox="0 0 1024 1024" version="1.1" xmlns="http://www.w3.org/2000/svg"><path fill="#333333" d="M512 896c-211.75 0-384-172.25-384-384s172.25-384 384-384 384 172.25 384 384-172.25 384-384 384z m0-708.92c-179.16 0-324.92 145.76-324.92 324.92S332.84 836.92 512 836.92 836.92 691.16 836.92 512 691.16 187.08 512 187.08zM541.54 659.69c-7.56 0-15.12-2.88-20.88-8.65L402.5 532.88c-11.54-11.54-11.54-30.23 0-41.77l118.15-118.15c11.54-11.54 30.23-11.54 41.77 0 11.54 11.54 11.54 30.23 0 41.77L465.15 512l97.27 97.27c11.54 11.54 11.54 30.23 0 41.77-5.77 5.77-13.32 8.65-20.88 8.65z" /></svg>