<?xml version="1.0" standalone="no"?><!DOCTYPE svg PUBLIC "-//W3C//DTD SVG 1.1//EN" "http://www.w3.org/Graphics/SVG/1.1/DTD/svg11.dtd"><svg class="icon" width="200px" height="200.00px" viewBox="0 0 1024 1024" version="1.1" xmlns="http://www.w3.org/2000/svg"><path fill="#333333" d="M773.82 831.96H642.91c-32.09 0-58.18-26.09-58.18-58.18V671.24H439.27v102.54c0 32.09-26.09 58.18-58.18 58.18H250.18c-32.09 0-58.18-26.09-58.18-58.18V509.79c0-23.14 9.43-45.74 25.87-62.02L450.59 217.2c33.86-33.55 88.98-33.55 122.84 0l232.71 230.58c16.43 16.25 25.85 38.86 25.85 62v263.99c0.01 32.1-26.08 58.19-58.17 58.19zM439.27 613.05h145.45c32.09 0 58.18 26.09 58.18 58.18v102.54h130.91V509.79c0-7.71-3.14-15.24-8.61-20.65l-232.73-230.6c-11.31-11.19-29.66-11.21-40.94 0h-0.01L258.8 489.12c-5.48 5.43-8.62 12.95-8.62 20.67v263.99h130.91V671.24c0-32.09 26.09-58.19 58.18-58.19z" /></svg>